External Loads File
version=1
nRows=56
nColumns=13
Range=5.000000e-03-10 seconds
endheader
time 	forceRightX 	forceRightY 	forceRightZ 	pointRightX 	pointRightY 	pointRightZ 	forceLeftX 	forceLeftY 	forceLeftZ 	pointLeftX 	pointLeftY 	pointLeftZ 		
0.005000 1.008178 48.348243 -0.000000 0.313511 0.396295 -0.106544 34.266178 97.005238 -0.000000 0.031698 0.246220 -0.341389
0.010000 0.806414 49.013615 -0.000000 0.313495 0.396297 -0.106514 33.697731 97.141595 -0.000000 0.031728 0.246214 -0.341398
0.015000 0.613228 49.665587 -0.000000 0.313470 0.396313 -0.106518 33.206385 97.296122 -0.000000 0.031744 0.246188 -0.341404
0.020000 0.439933 50.306766 -0.000000 0.313418 0.396392 -0.106532 32.847902 97.475864 -0.000000 0.031768 0.246184 -0.341393
0.025000 0.185423 50.925651 -0.000000 0.313208 0.396489 -0.106475 32.406337 97.744266 -0.000000 0.031466 0.245256 -0.340988
0.030000 0.094881 51.496926 -0.000000 0.313137 0.396495 -0.106521 32.279940 97.935516 -0.000000 0.031434 0.245074 -0.340865
0.035000 0.068702 51.983647 -0.000000 0.313092 0.396519 -0.106568 32.217994 98.093027 -0.000000 0.031426 0.244976 -0.340825
0.040000 0.079352 52.345370 -0.000000 0.313076 0.396520 -0.106579 32.173913 98.201642 -0.000000 0.031447 0.244908 -0.340817
0.045000 0.076545 52.557584 -0.000000 0.313075 0.396598 -0.106553 32.101572 98.269570 -0.000000 0.031462 0.244854 -0.340777
0.050000 0.044486 52.613775 -0.000000 0.313088 0.396658 -0.106494 32.030196 98.304991 -0.000000 0.031494 0.244805 -0.340747
0.055000 -0.033175 52.520070 -0.000000 0.313109 0.396718 -0.106447 31.993361 98.326738 -0.000000 0.031537 0.244787 -0.340732
0.060000 -0.172728 52.296985 -0.000000 0.313126 0.396764 -0.106418 32.020405 98.344838 -0.000000 0.031551 0.244716 -0.340694
0.065000 -0.365120 51.978950 -0.000000 0.313121 0.396814 -0.106411 32.137842 98.342246 -0.000000 0.031577 0.244661 -0.340702
0.070000 -0.581353 51.604198 -0.000000 0.313110 0.396855 -0.106427 32.335817 98.289393 -0.000000 0.031601 0.244636 -0.340701
0.075000 -0.796199 51.205265 -0.000000 0.313096 0.396873 -0.106450 32.562799 98.168935 -0.000000 0.031598 0.244604 -0.340688
0.080000 -0.996348 50.808752 -0.000000 0.313057 0.396907 -0.106498 32.754920 97.989649 -0.000000 0.031618 0.244551 -0.340690
0.085000 -1.147734 50.439946 -0.000000 0.313023 0.396953 -0.106547 32.919291 97.764671 -0.000000 0.031615 0.244504 -0.340694
0.090000 -1.238267 50.125049 -0.000000 0.312983 0.396988 -0.106568 33.063402 97.524831 -0.000000 0.031624 0.244456 -0.340721
0.095000 -1.268089 49.887437 -0.000000 0.312974 0.397042 -0.106579 33.213511 97.299501 -0.000000 0.031640 0.244399 -0.340697
0.100000 -1.254180 49.736593 -0.000000 0.312966 0.397107 -0.106559 33.387800 97.110589 -0.000000 0.031677 0.244323 -0.340692
0.105000 -1.209287 49.664061 -0.000000 0.312964 0.397174 -0.106539 33.612864 96.959699 -0.000000 0.031699 0.244274 -0.340685
0.110000 -1.171769 49.649271 -0.000000 0.312956 0.397268 -0.106487 33.857299 96.864713 -0.000000 0.031725 0.244210 -0.340666
0.115000 -1.153727 49.670265 -0.000000 0.312944 0.397366 -0.106432 34.127972 96.835097 -0.000000 0.031759 0.244146 -0.340663
0.120000 -1.156607 49.708276 -0.000000 0.312926 0.397459 -0.106431 34.415315 96.870275 -0.000000 0.031788 0.244062 -0.340645
0.125000 -1.171504 49.744324 -0.000000 0.312848 0.397531 -0.106396 34.693680 96.940462 -0.000000 0.031816 0.244004 -0.340668
0.130000 -1.210662 49.755889 -0.000000 0.312789 0.397625 -0.106430 34.905037 97.007478 -0.000000 0.031836 0.243904 -0.340657
0.135000 -1.269748 49.730919 -0.000000 0.312764 0.397700 -0.106496 35.041523 97.023377 -0.000000 0.031858 0.243815 -0.340666
0.140000 -1.344716 49.683425 -0.000000 0.312691 0.397771 -0.106539 35.064407 96.973655 -0.000000 0.031880 0.243720 -0.340667
0.145000 -1.379251 49.647633 -0.000000 0.312591 0.397833 -0.106586 34.992375 96.853512 -0.000000 0.031911 0.243664 -0.340643
0.150000 -1.326820 49.654850 -0.000000 0.312530 0.397907 -0.106600 34.827413 96.692916 -0.000000 0.031936 0.243563 -0.340665
0.155000 -1.150221 49.722458 -0.000000 0.312475 0.397988 -0.106590 34.604216 96.516263 -0.000000 0.031980 0.243479 -0.340635
0.160000 -0.861588 49.849025 -0.000000 0.312434 0.398079 -0.106577 34.334725 96.345279 -0.000000 0.032028 0.243369 -0.340656
0.165000 -0.501865 50.007624 -0.000000 0.312397 0.398162 -0.106569 34.053890 96.186818 -0.000000 0.032082 0.243273 -0.340648
0.170000 -0.147158 50.150112 -0.000000 0.312363 0.398243 -0.106522 33.784716 96.050842 -0.000000 0.032119 0.243180 -0.340653
0.175000 0.126485 50.231428 -0.000000 0.312321 0.398320 -0.106514 33.550408 95.944140 -0.000000 0.032156 0.243104 -0.340625
0.180000 0.263111 50.227901 -0.000000 0.312271 0.398400 -0.106499 33.363274 95.874362 -0.000000 0.032195 0.243025 -0.340633
0.185000 0.250359 50.137924 -0.000000 0.312210 0.398465 -0.106496 33.245095 95.848635 -0.000000 0.032230 0.242938 -0.340609
0.190000 0.115991 49.978376 -0.000000 0.312143 0.398538 -0.106512 33.212569 95.878429 -0.000000 0.032244 0.242883 -0.340607
0.195000 -0.097236 49.777795 -0.000000 0.312077 0.398604 -0.106548 33.251382 95.975546 -0.000000 0.032252 0.242807 -0.340605
0.200000 -0.346269 49.563749 -0.000000 0.311995 0.398677 -0.106558 33.338060 96.136713 -0.000000 0.032271 0.242714 -0.340599
0.205000 -0.589251 49.355581 -0.000000 0.311928 0.398731 -0.106597 33.479918 96.335953 -0.000000 0.032302 0.242649 -0.340638
0.210000 -0.832080 49.163308 -0.000000 0.311882 0.398826 -0.106589 33.638515 96.557041 -0.000000 0.032320 0.242556 -0.340625
0.215000 -1.064256 48.989283 -0.000000 0.311858 0.398892 -0.106576 33.840226 96.760154 -0.000000 0.032336 0.242497 -0.340642
0.220000 -1.307741 48.832533 -0.000000 0.311846 0.399000 -0.106529 34.048848 96.937431 -0.000000 0.032360 0.242427 -0.340603
0.225000 -1.550732 48.694176 -0.000000 0.311842 0.399090 -0.106477 34.280580 97.077499 -0.000000 0.032385 0.242365 -0.340589
0.230000 -1.793157 48.574471 -0.000000 0.311842 0.399173 -0.106451 34.520506 97.186767 -0.000000 0.032399 0.242316 -0.340582
0.235000 -2.036704 48.472430 -0.000000 0.311833 0.399267 -0.106423 34.732394 97.278688 -0.000000 0.032424 0.242265 -0.340571
0.240000 -2.260106 48.389240 -0.000000 0.311817 0.399350 -0.106420 34.905746 97.355547 -0.000000 0.032449 0.242208 -0.340576
0.245000 -2.454478 48.325870 -0.000000 0.311781 0.399487 -0.106450 35.013459 97.419623 -0.000000 0.032456 0.242137 -0.340588
0.250000 -2.592203 48.281753 -0.000000 0.311726 0.399547 -0.106485 35.082613 97.440972 -0.000000 0.032472 0.242061 -0.340615
0.255000 -2.681603 48.249184 -0.000000 0.311645 0.399602 -0.106511 35.077223 97.403847 -0.000000 0.032492 0.241978 -0.340640
0.260000 -2.720929 48.214845 -0.000000 0.311608 0.399640 -0.106539 35.000532 97.282578 -0.000000 0.032512 0.241916 -0.340642
0.265000 -2.744881 48.162421 -0.000000 0.311562 0.399711 -0.106557 34.810341 97.080812 -0.000000 0.032556 0.241855 -0.340674
0.270000 -2.771287 48.083451 -0.000000 0.311536 0.399773 -0.106551 34.520430 96.801455 -0.000000 0.032617 0.241758 -0.340685
0.275000 -2.800895 47.982549 -0.000000 0.311526 0.399865 -0.106514 34.172146 96.461318 -0.000000 0.032649 0.241689 -0.340678
0.280000 -2.831218 47.873916 -0.000000 0.311520 0.399943 -0.106479 33.789062 96.109047 -0.000000 0.032726 0.241583 -0.340702
